<svg width="30" height="30" viewBox="0 0 30 30" fill="none" xmlns="http://www.w3.org/2000/svg">
<rect width="30" height="30" rx="5" fill="#FAFAFA" fill-opacity="0.980392"/>
<path d="M15.0363 19.5728C13.2784 19.5728 11.5206 19.5728 9.76271 19.5728C9.67684 19.5728 9.58986 19.5728 9.50362 19.5639C9.06354 19.5228 8.88662 19.2263 9.07427 18.8255C9.23713 18.4794 9.41479 18.1422 9.58727 17.7999C10.4016 16.1878 11.2158 14.576 12.0301 12.9645C12.0553 12.9153 12.0816 12.866 12.1108 12.819C12.3159 12.4904 12.649 12.4441 12.9114 12.7276C13.0965 12.926 13.253 13.1488 13.4181 13.3639C14.2571 14.4602 15.096 15.557 15.935 16.6543C16.3014 17.1318 16.763 17.1577 17.1934 16.7283C17.407 16.5151 17.6157 16.2964 17.8319 16.085C18.2216 15.7038 18.6639 15.7268 18.9822 16.1713C19.6211 17.0633 20.244 17.9672 20.8699 18.868C20.9188 18.9387 20.9563 19.0167 20.9809 19.099C21.0416 19.3059 20.9558 19.4725 20.7459 19.5276C20.6143 19.5591 20.4792 19.5737 20.3439 19.5709C18.5757 19.5739 16.8065 19.5745 15.0363 19.5728Z" fill="#D4D2E3"/>
<path d="M18.9785 10.7397C18.9781 11.0837 18.8755 11.4199 18.6837 11.7056C18.492 11.9913 18.2197 12.2136 17.9015 12.3444C17.5832 12.4752 17.2333 12.5085 16.8961 12.4401C16.5588 12.3718 16.2495 12.2049 16.0073 11.9605C15.765 11.7161 15.6008 11.4054 15.5354 11.0676C15.47 10.7297 15.5064 10.3801 15.64 10.063C15.7735 9.74593 15.9982 9.47562 16.2856 9.28638C16.573 9.09714 16.91 8.99748 17.2541 9.00005C17.7123 9.00587 18.1498 9.1915 18.4724 9.51691C18.7949 9.84232 18.9767 10.2815 18.9785 10.7397Z" fill="#D4D2E3"/>
</svg>
